<?xml version="1.0" encoding="UTF-8"?>
<!DOCTYPE svg PUBLIC "-//W3C//DTD SVG 1.1//EN" "http://www.w3.org/Graphics/SVG/1.1/DTD/svg11.dtd">
<svg version="1.1" xmlns="http://www.w3.org/2000/svg" xmlns:xlink="http://www.w3.org/1999/xlink" x="0" y="0" width="256" height="256" viewBox="0, 0, 256, 256">
  <g id="Layer_1">
    <path d="M127.875,235.5 C68.228,235.5 19.875,187.594 19.875,128.5 C19.875,69.406 68.228,21.5 127.875,21.5 C187.522,21.5 235.875,69.406 235.875,128.5 C235.875,187.594 187.522,235.5 127.875,235.5 z" fill-opacity="0" stroke="#DD032B" stroke-width="10"/>
    <g>
      <text transform="matrix(1, 0, -0, 1, 128, 127.333)">
        <tspan x="-91.147" y="33.667" font-family="KGSummerSunshineBlackout" font-size="63" fill="#DD032B">{NK}</tspan>
      </text>
      <path d="M42.144,147.219 Q42.206,147.096 42.267,146.727 Q42.329,146.357 42.421,145.927 Q42.513,145.496 42.575,145.158 Q42.636,144.819 42.636,144.696 L43.682,135.099 Q43.621,133.991 43.498,132.915 Q43.375,131.838 43.036,130.823 Q42.698,129.808 42.083,128.916 Q41.467,128.023 40.483,127.347 Q39.868,126.916 39.406,126.701 Q38.945,126.485 38.514,125.686 Q39.745,124.886 40.452,123.686 Q41.16,122.486 41.898,121.071 Q42.144,120.395 42.206,120.087 Q42.267,119.779 42.329,119.164 L42.39,118.487 Q42.39,118.426 42.298,118.057 Q42.206,117.688 42.267,117.564 Q42.083,115.411 42.144,113.166 Q42.206,110.92 42.452,108.705 Q42.698,106.921 42.944,105.506 Q43.19,104.091 44.113,102.491 Q45.466,100.215 47.066,98.092 Q48.666,95.97 50.634,94.401 Q52.603,92.832 55.002,92.094 Q57.402,91.355 60.355,91.786 Q60.478,91.848 60.97,91.878 Q61.462,91.909 61.524,92.34 Q61.524,92.709 61.524,93.693 Q61.524,94.678 61.493,95.754 Q61.462,96.831 61.432,97.815 Q61.401,98.8 61.401,99.23 L61.339,99.846 Q61.278,99.907 60.693,100.061 Q60.109,100.215 59.986,100.276 Q59.863,100.338 59.401,100.676 Q58.94,101.015 58.355,101.445 Q57.771,101.876 57.217,102.307 Q56.664,102.737 56.418,102.983 Q54.941,104.214 54.326,105.506 Q53.71,106.798 53.526,108.767 Q53.403,110.489 53.372,112.304 Q53.341,114.119 53.772,115.842 Q53.834,116.026 54.018,116.611 Q54.203,117.195 54.418,117.903 Q54.633,118.61 54.787,119.226 Q54.941,119.841 55.002,120.025 Q55.126,120.148 55.187,120.518 Q55.249,120.887 55.249,120.948 Q55.249,121.01 55.218,121.656 Q55.187,122.302 55.126,122.609 Q55.064,122.917 54.972,123.501 Q54.879,124.086 54.818,124.209 Q54.818,124.271 54.664,124.67 Q54.51,125.07 54.449,125.132 L54.387,125.439 Q54.51,125.562 54.879,126.178 Q55.249,126.793 55.249,126.854 Q55.925,128.454 56.171,130.023 Q56.418,131.592 56.448,133.13 Q56.479,134.668 56.356,136.237 Q56.233,137.806 56.233,139.405 Q56.233,140.513 56.418,142.205 Q56.602,143.896 57.094,145.619 Q57.586,147.342 58.386,148.849 Q59.186,150.356 60.293,151.095 Q60.478,151.279 60.847,151.402 Q61.216,151.525 61.555,151.679 Q61.893,151.833 62.139,152.018 Q62.385,152.202 62.385,152.571 Q62.262,153.494 61.77,154.54 Q61.278,155.586 60.909,156.447 Q60.847,156.632 60.57,157.309 Q60.293,157.985 60.017,158.785 Q59.74,159.585 59.494,160.231 Q59.248,160.877 59.186,161.062 Q58.94,161.615 58.848,162.2 Q58.755,162.784 58.571,163.215 Q58.386,163.646 57.986,163.922 Q57.586,164.199 56.848,164.199 Q56.725,164.261 56.048,164.292 Q55.372,164.322 55.249,164.322 Q55.187,164.261 54.787,164.261 Q54.387,164.261 54.264,164.199 Q50.388,163.522 47.712,161.185 Q45.036,158.847 43.067,155.524 Q42.083,153.863 41.99,151.833 Q41.898,149.803 42.083,148.019 z M41.529,126.485 Q41.652,126.731 41.836,126.978 Q42.021,127.224 42.144,127.347 L42.452,127.408 Q42.636,127.224 43.067,126.793 Q43.498,126.362 43.559,126.239 Q43.621,126.178 43.836,125.932 Q44.051,125.686 44.297,125.409 Q44.543,125.132 44.759,124.855 Q44.974,124.578 44.974,124.517 Q45.651,123.84 46.266,123.348 Q46.881,122.855 47.004,121.871 Q47.066,121.563 47.066,121.256 Q47.066,120.948 46.758,120.641 Q46.697,120.641 46.451,120.825 Q46.205,121.01 46.082,121.071 Q45.897,121.256 45.466,121.717 Q45.036,122.179 44.574,122.671 Q44.113,123.163 43.713,123.625 Q43.313,124.086 43.128,124.271 Q43.005,124.271 42.575,124.855 Q42.144,125.439 42.021,125.624 L41.836,125.993 Q41.775,126.116 41.652,126.178 z M43.867,154.294 Q43.805,154.909 44.205,155.586 Q44.605,156.263 45.036,156.693 Q45.343,155.586 45.866,154.94 Q46.389,154.294 46.881,153.125 L46.881,152.879 Q46.881,152.756 46.851,152.325 Q46.82,151.895 46.789,151.341 Q46.758,150.787 46.728,150.203 Q46.697,149.618 46.758,149.249 Q46.389,149.434 46.02,149.833 Q45.651,150.233 45.589,150.356 Q45.528,150.479 45.343,151.002 Q45.159,151.525 44.913,152.079 Q44.667,152.633 44.482,153.125 Q44.297,153.617 44.236,153.74 Q44.174,153.802 44.051,154.048 Q43.99,154.171 43.867,154.294 z M46.143,117.503 Q46.082,117.564 45.774,117.78 Q45.466,117.995 45.466,118.118 Q45.343,118.18 45.097,118.518 Q44.851,118.856 44.543,119.256 Q44.236,119.656 43.959,120.056 Q43.682,120.456 43.559,120.702 Q43.19,121.194 42.667,121.994 Q42.144,122.794 41.621,123.532 Q41.098,124.271 40.729,124.824 Q40.36,125.378 40.36,125.378 L40.298,125.686 L40.606,125.809 Q40.668,125.809 41.098,125.347 Q41.529,124.886 41.775,124.578 Q42.021,124.332 42.667,123.594 Q43.313,122.855 44.021,122.056 Q44.728,121.256 45.374,120.518 Q46.02,119.779 46.266,119.472 Q46.389,119.41 46.512,119.226 Q46.635,119.041 46.635,118.979 L46.635,118.61 Q46.574,118.487 46.543,118.057 Q46.512,117.626 46.451,117.564 z M47.312,131.161 Q46.758,131.346 46.574,131.899 Q45.897,133.376 45.374,134.36 Q44.851,135.345 44.728,136.883 L44.543,138.544 L47.989,134.483 L47.989,134.176 Q47.989,133.93 47.927,133.53 Q47.866,133.13 47.773,132.699 Q47.681,132.269 47.62,131.93 Q47.558,131.592 47.558,131.469 z M44.051,143.281 L47.435,139.528 L47.743,136.083 Q47.435,136.206 47.097,136.606 Q46.758,137.006 46.635,137.19 Q46.574,137.313 46.297,137.683 Q46.02,138.052 45.682,138.513 Q45.343,138.975 45.066,139.344 Q44.79,139.713 44.728,139.836 Q44.728,139.897 44.605,139.99 Q44.482,140.082 44.42,140.144 z M48.173,159.646 Q48.112,160.323 48.85,160.846 Q49.588,161.369 50.019,161.554 Q50.511,161.431 50.85,160.539 Q51.188,159.646 51.25,159.031 Q51.373,158.231 50.696,157.801 Q50.019,157.37 49.465,156.939 Q49.158,157.001 48.942,157.339 Q48.727,157.678 48.543,158.108 Q48.358,158.539 48.266,158.97 Q48.173,159.4 48.173,159.646 z M42.944,150.541 Q42.882,151.033 42.882,151.864 Q42.882,152.694 43.313,152.94 Q43.498,152.633 43.867,151.833 Q44.236,151.033 44.697,150.233 Q45.159,149.434 45.651,148.818 Q46.143,148.203 46.512,148.265 L46.758,145.373 Q46.451,145.496 46.143,145.927 Q45.835,146.357 45.651,146.542 Q45.589,146.665 45.374,146.911 Q45.159,147.157 44.943,147.496 Q44.728,147.834 44.482,148.111 Q44.236,148.388 44.174,148.449 Q43.928,148.818 43.498,149.495 Q43.067,150.172 42.944,150.295 z M43.005,148.757 Q43.805,147.588 44.882,146.204 Q45.959,144.819 47.004,143.773 L47.251,141.066 Q46.635,141.928 45.959,142.635 Q45.282,143.343 44.667,144.081 Q44.051,144.819 43.651,145.558 Q43.251,146.296 43.19,147.157 z M44.605,131.53 Q44.543,132.33 44.543,132.853 Q44.543,133.376 44.667,134.237 Q44.913,134.237 45.097,133.807 Q45.282,133.376 45.436,132.822 Q45.589,132.269 45.743,131.715 Q45.897,131.161 46.082,130.854 Q46.143,130.792 46.605,130.331 Q47.066,129.869 47.189,129.808 L47.189,129.5 Q47.312,128.639 46.635,128.085 Q45.774,128.577 45.251,129.562 Q44.728,130.546 44.605,131.53 z M47.004,159.093 L47.312,159.154 Q47.312,159.031 47.466,158.539 Q47.62,158.047 47.681,157.862 Q47.804,157.739 48.204,157.001 Q48.604,156.263 48.543,156.14 Q48.543,156.078 48.235,155.494 Q47.927,154.909 47.743,154.663 Q47.743,154.602 47.62,154.479 Q47.497,154.355 47.435,154.294 Q46.943,154.971 46.605,155.894 Q46.266,156.816 45.528,157.247 z M51.557,162.169 Q51.926,162.354 52.203,162.446 Q52.48,162.538 52.849,162.6 Q53.218,162.661 53.434,162.415 Q53.649,162.169 53.834,161.831 Q54.018,161.492 54.11,161.123 Q54.203,160.754 54.326,160.569 Q54.141,160.139 53.557,159.954 Q52.972,159.77 52.542,159.708 Q52.172,159.646 52.019,159.8 Q51.865,159.954 51.772,160.231 Q51.68,160.508 51.649,160.815 Q51.619,161.123 51.619,161.369 z M45.835,101.507 Q44.913,102.799 44.359,104.06 Q43.805,105.321 43.682,106.982 L43.559,108.274 Q44.851,107.044 45.22,105.475 Q45.589,103.906 45.774,102.122 z M55.249,161.062 Q55.187,161.062 55.002,161.431 Q54.818,161.8 54.756,161.984 L54.695,162.907 L56.602,163.276 Q56.725,163.276 56.817,163 Q56.91,162.723 57.033,162.6 Q57.156,162.415 57.463,161.738 Q57.771,161.062 57.894,160.877 z M43.19,114.058 Q43.19,114.304 43.313,114.827 Q43.436,115.35 43.436,115.473 Q43.559,115.288 44.113,114.888 Q44.667,114.488 44.79,114.365 Q44.851,114.365 45.159,114.273 Q45.466,114.181 45.528,114.181 L45.528,114.058 Q45.589,113.565 45.374,112.827 Q45.159,112.089 44.728,111.781 Q44.236,112.027 43.744,112.612 Q43.251,113.196 43.19,113.75 z M43.559,117.441 Q43.559,117.564 43.651,118.087 Q43.744,118.61 43.744,118.795 Q44.113,118.61 44.359,118.21 Q44.605,117.811 44.851,117.441 Q45.097,117.072 45.405,116.795 Q45.712,116.519 46.205,116.519 L45.774,114.55 Q45.22,114.857 44.451,115.719 Q43.682,116.58 43.559,117.318 z M43.251,128.146 Q43.251,128.516 43.436,129.039 Q43.621,129.562 43.99,129.623 L44.174,129.623 L45.712,127.224 L45.466,126.854 Q45.405,126.854 45.159,126.67 Q44.913,126.485 44.79,126.424 L44.543,126.424 Q44.42,126.547 43.99,127.131 Q43.559,127.716 43.436,127.839 L43.313,127.962 Q43.251,128.023 43.251,128.085 z M44.851,108.213 Q44.174,108.89 43.867,109.597 Q43.559,110.305 43.436,111.351 L43.498,111.904 Q43.621,111.966 44.051,111.351 Q44.482,110.735 44.605,110.428 z M76.167,161.062 Q75.92,160.938 75.121,160.785 Q74.321,160.631 74.075,160.569 Q74.013,160.569 73.767,160.508 Q73.521,160.446 73.244,160.416 Q72.967,160.385 72.69,160.323 Q72.414,160.262 72.352,160.262 Q72.229,160.2 72.014,159.985 Q71.798,159.77 71.675,159.646 L71.675,159.4 Q71.675,159.216 71.768,158.662 Q71.86,158.108 71.952,157.493 Q72.044,156.878 72.106,156.324 Q72.168,155.771 72.168,155.586 L72.044,150.11 Q72.044,149.864 72.075,148.941 Q72.106,148.019 72.168,146.942 Q72.229,145.865 72.321,144.942 Q72.414,144.02 72.414,143.773 L72.352,142.912 Q72.352,142.297 72.383,140.297 Q72.414,138.298 72.414,135.622 Q72.414,132.945 72.444,129.931 Q72.475,126.916 72.475,124.24 Q72.475,121.563 72.475,119.595 Q72.475,117.626 72.475,116.949 Q72.475,116.149 72.414,114.088 Q72.352,112.027 72.291,109.72 Q72.229,107.413 72.168,105.352 Q72.106,103.291 72.044,102.491 L72.66,101.322 L77.459,96.154 Q77.643,95.97 77.705,95.57 Q77.766,95.17 77.858,94.801 Q77.951,94.432 78.135,94.155 Q78.32,93.878 78.689,93.878 L78.874,93.878 Q79.058,93.878 79.919,93.97 Q80.781,94.062 81.796,94.155 Q82.811,94.247 83.672,94.339 Q84.534,94.432 84.718,94.432 L90.317,94.432 Q91.24,94.924 91.67,95.877 Q92.101,96.831 92.593,97.631 Q96.039,103.599 99.146,109.659 Q102.252,115.719 105.944,121.563 Q106.005,121.379 106.067,120.61 Q106.128,119.841 106.128,119.533 Q106.128,119.472 105.975,119.226 Q105.821,118.979 105.821,118.918 L105.821,118.672 Q105.821,118.61 105.944,118.426 Q106.067,118.241 106.067,118.118 L105.821,109.197 Q105.821,108.951 105.821,108.151 Q105.821,107.352 105.852,106.429 Q105.882,105.506 105.913,104.645 Q105.944,103.783 105.944,103.414 Q105.944,103.168 105.975,102.768 Q106.005,102.368 106.036,101.938 Q106.067,101.507 106.098,101.168 Q106.128,100.83 106.128,100.769 Q106.436,99.723 107.267,99.077 Q108.097,98.431 108.774,97.631 Q108.835,97.508 109.143,96.985 Q109.451,96.462 109.82,95.877 Q110.189,95.293 110.527,94.801 Q110.866,94.309 110.927,94.186 Q111.112,93.878 111.173,93.847 Q111.235,93.816 111.543,93.816 Q112.773,93.816 113.696,94.278 Q114.619,94.739 116.034,94.739 L125.139,94.739 L125.139,96.154 Q125.139,96.646 125.108,98.615 Q125.078,100.584 125.047,102.799 Q125.016,105.014 125.016,106.982 Q125.016,108.951 125.016,109.443 L125.324,120.21 Q125.508,126.239 125.816,132.269 Q126.124,138.298 126.308,144.327 L126.308,145.25 Q126.308,145.496 126.247,146.419 Q126.185,147.342 126.062,148.418 Q125.939,149.495 125.816,150.418 Q125.693,151.341 125.631,151.587 Q125.57,152.264 125.601,153.063 Q125.631,153.863 125.139,154.417 Q125.016,155.217 124.616,155.709 Q124.216,156.201 123.601,156.601 Q122.986,157.001 122.278,157.493 Q121.571,157.985 120.894,158.785 Q120.833,158.847 120.586,158.939 Q120.34,159.031 120.279,159.031 Q120.156,159.154 119.817,159.37 Q119.479,159.585 119.418,159.646 L105.821,159.646 L105.575,159.4 Q105.513,159.277 105.421,158.816 Q105.329,158.354 105.267,158.231 Q105.206,158.108 104.96,157.647 Q104.713,157.186 104.59,157.062 Q103.421,154.971 102.56,152.756 Q101.699,150.541 100.53,148.388 Q100.038,147.465 99.146,146.327 Q98.253,145.188 97.761,144.327 Q97.7,144.204 97.454,143.62 Q97.208,143.035 97.085,142.912 Q97.085,142.789 96.961,142.604 Q96.838,142.42 96.838,142.358 Q96.715,142.297 96.346,142.082 Q95.977,141.866 95.916,141.805 Q95.854,141.743 95.885,141.497 Q95.916,141.251 95.854,141.189 Q95.731,140.882 95.393,140.297 Q95.054,139.713 94.993,139.713 L94.07,139.713 Q94.193,143.589 94.501,147.496 Q94.808,151.402 94.808,155.34 Q94.87,155.463 94.962,155.617 Q95.054,155.771 94.9,156.14 Q94.747,156.509 94.224,157.155 Q93.701,157.801 92.593,158.785 Q92.286,159.708 91.64,160.323 Q90.994,160.938 90.871,161.062 Q90.501,161.062 89.855,161.031 Q89.21,161 88.902,161.369 L85.58,161.369 Q85.457,161.677 85.303,161.708 Q85.149,161.738 84.964,161.738 L84.841,161.738 Q84.78,161.738 84.718,161.677 Q84.657,161.677 84.534,161.554 Q84.472,161.492 84.411,161.369 Q84.288,161.308 83.949,161.338 Q83.611,161.369 83.549,161.369 Q83.119,161.369 82.042,161.308 Q80.965,161.246 79.796,161.215 Q78.627,161.185 77.582,161.123 Q76.536,161.062 76.167,161.062 z M77.705,135.099 Q77.705,135.099 77.428,135.375 Q77.151,135.652 76.782,136.021 Q76.413,136.391 76.043,136.791 Q75.674,137.19 75.428,137.437 Q74.936,138.052 74.167,139.036 Q73.398,140.021 73.213,140.882 Q73.213,141.005 73.183,141.374 Q73.152,141.743 73.121,142.174 Q73.09,142.604 73.09,143.004 Q73.09,143.404 73.09,143.466 Q73.09,143.65 73.121,144.266 Q73.152,144.881 73.152,145.558 Q73.152,146.234 73.121,146.819 Q73.09,147.403 73.09,147.526 L73.152,148.695 Q73.275,148.388 73.706,147.772 Q74.136,147.157 74.259,146.973 Q74.444,146.727 74.936,146.234 Q75.428,145.742 75.982,145.188 Q76.536,144.635 76.997,144.143 Q77.459,143.65 77.643,143.466 Q77.889,142.42 77.92,141.774 Q77.951,141.128 77.951,140.144 Q77.951,140.021 77.889,139.651 Q77.828,139.282 77.828,139.159 Q77.705,139.282 77.366,139.59 Q77.028,139.897 76.659,140.267 Q76.29,140.636 75.982,140.974 Q75.674,141.312 75.551,141.497 Q75.49,141.559 75.244,141.897 Q74.998,142.235 74.69,142.635 Q74.382,143.035 74.105,143.404 Q73.829,143.773 73.829,143.835 Q73.706,143.958 73.521,144.143 Q73.336,144.327 73.213,144.389 L73.213,144.143 Q73.213,143.712 73.429,143.281 Q73.644,142.851 73.982,142.42 Q74.321,141.989 74.659,141.589 Q74.998,141.189 75.244,140.882 Q75.367,140.759 75.736,140.359 Q76.105,139.959 76.536,139.498 Q76.966,139.036 77.335,138.605 Q77.705,138.175 77.828,137.99 Q78.197,136.514 78.135,135.099 z M77.705,104.214 Q77.643,104.337 77.428,104.521 Q77.212,104.706 77.089,104.829 Q76.966,105.014 76.566,105.66 Q76.167,106.306 75.674,107.044 Q75.182,107.782 74.721,108.459 Q74.259,109.136 74.075,109.443 Q73.952,109.628 73.798,109.843 Q73.644,110.059 73.521,110.305 Q73.336,110.551 73.213,110.858 L73.336,114.673 Q73.398,114.488 73.613,114.181 Q73.829,113.873 73.89,113.75 Q74.075,113.442 74.413,112.95 Q74.751,112.458 75.121,111.935 Q75.49,111.412 75.767,111.043 Q76.043,110.674 76.105,110.612 Q76.659,109.936 77.243,109.536 Q77.828,109.136 77.828,108.274 z M73.521,130.177 Q73.46,130.238 73.429,130.577 Q73.398,130.915 73.336,131.376 Q73.275,131.838 73.244,132.33 Q73.213,132.822 73.213,133.13 L73.275,134.114 Q73.706,133.376 74.444,132.638 Q75.182,131.899 75.551,131.407 Q75.674,131.223 75.982,130.854 Q76.29,130.484 76.659,130.084 Q77.028,129.685 77.366,129.315 Q77.705,128.946 77.828,128.762 L77.766,126.793 Q77.766,126.608 77.735,126.239 Q77.705,125.87 77.643,125.439 Q77.582,125.009 77.52,124.64 Q77.459,124.271 77.397,124.147 z M75.859,131.961 Q75.613,132.207 75.305,132.638 Q74.998,133.068 74.659,133.53 Q74.321,133.991 73.952,134.391 Q73.583,134.791 73.275,134.976 L73.398,138.852 Q73.521,138.852 73.613,138.759 Q73.706,138.667 73.767,138.605 Q74.259,138.052 74.967,137.221 Q75.674,136.391 76.351,135.591 Q77.151,134.668 78.012,133.684 L77.889,129.869 Q77.766,129.992 77.489,130.269 Q77.212,130.546 76.874,130.884 Q76.536,131.223 76.259,131.53 Q75.982,131.838 75.859,131.961 z M109.82,114.919 Q109.635,115.104 109.266,115.565 Q108.897,116.026 108.497,116.549 Q108.097,117.072 107.759,117.503 Q107.42,117.934 107.297,118.118 Q107.236,118.241 107.144,118.426 Q107.051,118.61 107.051,118.672 L107.174,122.24 L107.297,122.24 Q107.359,122.24 107.359,122.209 Q107.359,122.179 107.42,122.179 Q107.543,122.056 107.974,121.625 Q108.405,121.194 108.589,120.948 Q108.712,120.825 109.235,120.179 Q109.758,119.533 109.943,119.226 Q110.066,119.103 110.189,118.918 Q110.312,118.733 110.435,118.549 Q110.62,118.303 110.804,118.118 L110.681,114.058 z M73.46,119.226 Q73.521,118.979 73.829,118.457 Q74.136,117.934 74.259,117.811 Q74.382,117.626 74.567,117.288 Q74.751,116.949 74.813,116.949 Q74.875,116.888 75.274,116.488 Q75.674,116.088 76.136,115.657 Q76.597,115.227 76.966,114.857 Q77.335,114.488 77.397,114.365 Q77.52,114.242 77.643,114.058 Q77.766,113.873 77.766,113.75 L77.643,109.997 Q76.228,111.166 75.397,112.735 Q74.567,114.304 73.706,115.78 Q73.644,115.842 73.552,115.965 Q73.46,116.088 73.398,116.088 z M73.829,101.076 Q73.152,101.753 73.06,102.737 Q72.967,103.722 72.967,104.521 Q72.967,104.645 73.029,105.106 Q73.09,105.567 73.09,105.69 Q73.152,105.69 73.244,105.567 Q73.336,105.444 73.398,105.383 Q73.644,105.014 74.198,104.275 Q74.751,103.537 75.305,102.737 Q75.859,101.938 76.351,101.292 Q76.843,100.646 76.966,100.461 Q77.028,100.399 77.151,100.184 Q77.274,99.969 77.335,99.907 Q77.335,99.846 77.582,99.63 Q77.828,99.415 77.889,99.354 L77.828,97.262 L77.52,97.262 z M73.09,156.509 Q73.89,155.34 74.813,154.479 Q75.736,153.617 76.782,152.756 Q77.028,152.571 77.366,152.233 Q77.705,151.895 77.705,151.833 L77.828,148.941 L77.582,148.695 Q76.659,149.372 75.828,150.141 Q74.998,150.91 74.444,151.833 Q74.382,151.895 74.259,152.171 Q74.136,152.448 73.982,152.756 Q73.829,153.063 73.736,153.31 Q73.644,153.556 73.583,153.556 Q73.521,153.679 73.336,153.771 Q73.152,153.863 73.029,153.863 z M110.927,100.399 Q110.497,100.399 110.251,100.769 L106.928,105.937 Q106.928,105.937 106.897,106.213 Q106.867,106.49 106.836,106.859 Q106.805,107.229 106.774,107.628 Q106.744,108.028 106.744,108.274 Q106.744,108.397 106.713,108.582 Q106.682,108.767 106.682,108.89 L106.99,108.89 Q106.99,108.89 107.297,108.521 Q107.605,108.151 108.036,107.628 Q108.466,107.105 108.897,106.583 Q109.328,106.06 109.574,105.69 Q109.758,105.383 110.189,104.706 Q110.62,104.029 110.681,103.906 Q110.804,103.66 110.866,103.168 Q110.927,102.676 110.958,102.153 Q110.989,101.63 110.958,101.168 Q110.927,100.707 110.927,100.399 z M81.704,155.586 Q80.842,155.586 80.258,156.047 Q79.673,156.509 79.243,157.155 Q78.812,157.801 78.504,158.57 Q78.197,159.339 77.951,159.954 Q77.951,160.016 77.92,160.046 Q77.889,160.077 77.889,160.2 L77.889,160.385 Q78.012,160.385 78.381,160.354 Q78.751,160.323 79.181,160.323 Q79.612,160.323 80.012,160.292 Q80.412,160.262 80.596,160.262 Q80.719,160.262 80.904,160.139 Q81.088,160.016 81.15,159.954 L83.119,155.894 Q82.996,155.832 82.503,155.709 Q82.011,155.586 81.888,155.586 z M77.274,119.841 Q77.151,119.964 76.874,120.241 Q76.597,120.518 76.259,120.825 Q75.92,121.133 75.644,121.44 Q75.367,121.748 75.305,121.871 Q75.121,122.056 74.844,122.579 Q74.567,123.102 74.321,123.655 Q74.075,124.209 73.859,124.67 Q73.644,125.132 73.644,125.316 Q73.583,125.378 73.583,125.993 Q73.583,126.608 73.583,126.916 Q73.583,127.101 73.644,127.685 Q73.706,128.27 73.767,128.454 L74.075,128.208 L77.335,122.732 z M106.867,112.95 L107.42,112.95 Q107.42,112.95 107.636,112.735 Q107.851,112.52 108.128,112.243 Q108.405,111.966 108.682,111.658 Q108.959,111.351 109.082,111.166 Q109.143,111.043 109.389,110.766 Q109.635,110.489 109.851,110.151 Q110.066,109.812 110.281,109.566 Q110.497,109.32 110.558,109.197 Q110.62,109.074 110.712,108.736 Q110.804,108.397 110.804,108.274 Q110.804,108.213 110.835,107.659 Q110.866,107.105 110.804,106.798 Q110.804,106.675 110.773,106.121 Q110.743,105.567 110.743,105.383 Q110.374,105.69 109.82,106.459 Q109.266,107.229 108.682,108.028 Q108.097,108.828 107.574,109.443 Q107.051,110.059 106.805,110.059 z M77.397,115.165 Q75.859,116.58 74.628,118.333 Q73.398,120.087 73.46,122.24 Q73.46,122.425 73.521,123.071 Q73.583,123.717 73.644,123.901 Q73.829,123.409 74.167,122.609 Q74.505,121.81 74.998,121.317 Q75.059,121.194 75.397,120.794 Q75.736,120.395 76.105,119.964 Q76.474,119.533 76.813,119.164 Q77.151,118.795 77.212,118.672 Q77.643,118.18 77.612,117.688 Q77.582,117.195 77.52,116.703 Q77.52,116.519 77.489,115.903 Q77.459,115.288 77.397,115.165 z M72.967,153.002 Q73.829,151.279 75.121,149.895 Q76.413,148.511 77.766,147.28 L77.705,144.635 Q76.29,145.742 75.213,146.973 Q74.136,148.203 73.521,149.864 L72.906,149.864 z M110.127,96.708 Q110.004,96.831 109.697,97.323 Q109.389,97.815 109.328,97.938 Q109.205,98 108.959,98.308 Q108.712,98.615 108.436,98.923 Q108.159,99.23 107.943,99.538 Q107.728,99.846 107.667,99.907 Q107.051,100.769 106.928,101.784 Q106.805,102.799 106.867,103.845 L106.867,104.521 L107.174,104.214 Q107.297,104.029 107.759,103.383 Q108.22,102.737 108.712,101.968 Q109.205,101.199 109.666,100.522 Q110.127,99.846 110.251,99.661 Q110.374,99.6 110.62,99.384 Q110.866,99.169 110.866,99.046 L110.804,98.677 Q110.804,97.692 110.435,96.462 z M72.844,107.475 Q72.844,107.598 72.875,107.905 Q72.906,108.213 72.967,108.582 Q73.029,108.951 73.09,109.29 Q73.152,109.628 73.213,109.689 Q73.398,109.443 73.859,108.705 Q74.321,107.967 74.844,107.136 Q75.367,106.306 75.828,105.567 Q76.29,104.829 76.474,104.521 Q76.597,104.398 76.936,104.091 Q77.274,103.783 77.459,103.722 Q77.459,103.722 77.582,103.66 Q77.643,103.66 77.705,103.599 L77.643,101.076 Q76.228,102.184 75.305,103.66 Q74.382,105.137 73.398,106.552 Q73.275,106.613 73.06,106.829 Q72.844,107.044 72.844,107.167 z M82.073,159.954 Q82.196,160.262 82.626,160.416 Q83.057,160.569 83.242,160.569 Q83.549,160.569 84.072,160.477 Q84.595,160.385 84.718,160.262 Q84.78,160.139 84.964,159.523 Q85.149,158.908 85.21,158.785 Q85.272,158.601 85.518,158.201 Q85.764,157.801 86.041,157.339 Q86.318,156.878 86.564,156.478 Q86.81,156.078 86.933,155.894 Q86.81,155.832 86.349,155.832 Q85.887,155.832 85.764,155.832 Q85.518,155.832 85.057,155.832 Q84.595,155.832 84.595,155.894 Q84.472,155.955 84.042,156.417 Q83.611,156.878 83.426,157.062 Q83.303,157.247 83.119,157.647 Q82.934,158.047 82.719,158.508 Q82.503,158.97 82.319,159.37 Q82.134,159.77 82.073,159.954 z M87.794,155.894 Q87.61,156.263 87.364,156.57 Q86.995,157.124 86.626,157.616 Q86.318,158.108 85.887,158.816 Q85.457,159.523 85.518,160.262 L87.918,160.262 Q87.979,160.262 88.071,160.139 Q88.164,160.016 88.225,159.954 Q88.902,158.785 89.363,157.862 Q89.825,156.939 90.748,155.894 z M73.767,159.4 Q74.321,159.77 75.059,160.016 Q75.797,160.262 76.474,160.262 L76.72,160.262 Q76.782,160.2 76.966,159.862 Q77.151,159.523 77.274,159.4 Q77.397,159.216 77.705,158.724 Q78.012,158.231 78.32,157.678 Q78.627,157.124 78.904,156.601 Q79.181,156.078 79.243,155.894 L77.766,155.586 Q76.843,156.632 75.736,157.493 Q74.628,158.354 73.767,159.4 z M91.855,155.647 Q91.547,156.017 91.301,156.324 Q91.055,156.632 90.809,156.939 Q90.563,157.247 90.44,157.37 Q90.071,157.924 89.671,158.601 Q89.271,159.277 89.333,160.016 L90.563,160.016 Q90.563,160.016 90.871,159.708 Q91.178,159.4 91.609,159 Q92.04,158.601 92.47,158.139 Q92.901,157.678 93.147,157.37 Q93.332,157.247 93.762,156.693 Q94.193,156.14 94.316,155.955 Q93.947,155.647 93.485,155.647 Q93.024,155.647 92.655,155.647 z M110.558,110.305 Q110.435,110.489 110.004,111.043 Q109.574,111.597 109.451,111.781 L107.482,113.75 Q107.113,114.181 107.144,114.642 Q107.174,115.104 107.236,115.596 L107.236,116.949 Q107.297,116.826 107.513,116.642 Q107.728,116.457 107.851,116.334 Q107.913,116.272 108.189,115.873 Q108.466,115.473 108.805,115.042 Q109.143,114.611 109.42,114.242 Q109.697,113.873 109.82,113.75 L110.62,112.95 Q110.866,112.52 110.897,111.658 Q110.927,110.797 110.927,110.305 z M72.844,158.601 Q73.029,158.601 73.152,158.478 Q73.275,158.478 73.49,158.354 Q73.706,158.231 73.767,158.231 Q73.952,158.108 74.475,157.647 Q74.998,157.186 75.121,157.062 Q75.428,156.816 75.89,156.386 Q76.351,155.955 76.751,155.524 Q77.151,155.094 77.459,154.786 Q77.766,154.479 77.766,154.417 L77.951,153.002 L77.705,153.002 Q74.751,154.602 73.398,157.309 L72.783,157.062 z M107.236,123.594 Q107.359,123.901 107.636,124.486 Q107.913,125.07 108.22,125.07 L108.282,125.07 Q108.343,125.07 108.343,125.04 Q108.343,125.009 108.405,125.009 Q108.774,124.517 109.235,124.024 Q109.697,123.532 110.097,122.979 Q110.497,122.425 110.743,121.81 Q110.989,121.194 110.989,120.518 Q110.989,120.395 110.927,120.056 Q110.866,119.718 110.866,119.595 Q110.743,119.718 110.281,120.118 Q109.82,120.518 109.697,120.641 Q109.512,120.825 109.143,121.225 Q108.774,121.625 108.374,122.117 Q107.974,122.609 107.636,123.009 Q107.297,123.409 107.236,123.594 z M98.315,143.466 Q98.376,143.466 98.469,143.343 Q98.561,143.22 98.623,143.22 Q98.746,142.912 98.93,142.543 Q99.115,142.174 99.299,141.805 Q99.484,141.374 99.668,140.882 L98.192,137.99 L98.069,137.99 Q97.761,137.99 97.577,138.359 Q97.392,138.729 97.269,138.852 Q97.146,139.344 96.961,139.959 Q96.838,140.267 96.777,140.636 z M123.724,155.094 Q123.355,155.094 122.432,155.125 Q121.509,155.155 120.586,155.217 L120.586,155.34 Q120.402,155.524 120.002,155.924 Q119.602,156.324 119.202,156.786 Q118.802,157.247 118.464,157.708 Q118.126,158.17 118.002,158.478 L118.126,158.478 Q119.664,158.478 121.017,157.462 Q122.371,156.447 123.478,155.586 L123.724,155.34 z M111.419,158.354 Q111.419,158.478 111.635,158.601 Q111.85,158.724 112.127,158.816 Q112.404,158.908 112.619,158.97 Q112.835,159.031 112.896,159.031 L113.142,159.031 Q113.757,159.031 113.85,158.724 Q113.942,158.416 114.065,157.924 Q114.25,157.493 114.619,157.155 Q114.988,156.816 115.418,156.509 Q115.849,156.201 116.126,155.955 Q116.403,155.709 116.403,155.463 Q116.403,155.401 116.341,155.34 Q116.157,155.34 115.449,155.463 Q114.742,155.586 114.557,155.586 Q114.373,155.647 114.096,155.74 Q113.819,155.832 113.819,155.894 L111.419,158.231 z M99.238,144.635 Q99.299,144.819 99.822,145.588 Q100.345,146.357 100.468,146.665 L100.776,146.973 Q100.899,146.727 101.207,145.958 Q101.514,145.188 101.576,144.881 L101.576,144.758 Q101.576,144.696 101.606,144.696 Q101.637,144.696 101.637,144.635 Q101.637,144.573 101.606,144.481 Q101.576,144.389 101.576,144.327 Q101.514,144.204 101.36,143.866 Q101.207,143.527 100.991,143.189 Q100.776,142.851 100.591,142.512 Q100.407,142.174 100.345,142.051 Q99.73,142.42 99.453,143.127 Q99.176,143.835 99.238,144.45 z M116.772,158.478 L119.725,155.278 Q119.233,155.34 118.925,155.34 Q118.618,155.34 118.433,155.34 Q118.187,155.34 117.756,155.463 Q117.326,155.586 117.203,155.586 Q117.141,155.647 116.864,155.894 Q116.587,156.14 116.28,156.478 Q115.972,156.816 115.665,157.124 Q115.357,157.432 115.234,157.616 Q115.172,157.678 115.111,157.893 Q115.049,158.108 114.988,158.231 Q114.926,158.231 114.926,158.354 L114.926,158.478 z M106.005,156.939 Q106.005,157.124 106.098,157.678 Q106.19,158.231 106.559,158.231 L106.744,158.231 L108.466,156.509 Q108.466,156.447 108.497,156.293 Q108.528,156.14 108.528,156.078 Q108.528,156.017 108.497,155.955 Q108.466,155.894 108.466,155.771 Q108.405,155.647 108.405,155.586 Q108.22,155.278 107.759,154.725 Q107.297,154.171 107.174,154.171 L106.928,154.171 Q106.805,154.355 106.682,154.602 Q106.559,154.786 106.467,155.001 Q106.375,155.217 106.313,155.34 Q106.067,155.894 106.036,156.109 Q106.005,156.324 106.005,156.939 z M95.177,137.744 Q95.177,138.236 95.423,138.852 Q95.669,139.467 96.162,139.713 Q96.469,139.036 96.9,138.329 Q97.331,137.621 97.269,136.883 Q97.269,136.391 97.023,135.714 Q96.777,135.037 96.285,134.853 Q96.223,134.976 96.069,135.345 Q95.916,135.714 95.731,136.114 Q95.546,136.514 95.393,136.883 Q95.239,137.252 95.177,137.437 z M93.762,136.76 Q93.762,137.252 93.824,137.59 Q93.885,137.929 94.07,138.605 Q94.254,137.744 94.562,136.821 Q94.87,135.898 95.362,135.099 Q95.423,135.099 95.7,134.883 Q95.977,134.668 95.977,134.545 L95.977,134.422 Q95.977,134.36 96.008,134.33 Q96.039,134.299 96.039,134.237 Q96.039,133.807 95.731,133.314 Q95.423,132.822 95.054,132.515 Q94.747,132.699 94.531,133.253 Q94.316,133.807 94.131,134.453 Q93.947,135.099 93.855,135.745 Q93.762,136.391 93.762,136.76 z M108.774,126.178 Q108.835,126.424 109.174,127.193 Q109.512,127.962 109.635,128.208 Q110.189,128.023 110.312,127.193 Q110.435,126.362 110.62,125.87 Q110.681,125.87 110.835,125.501 Q110.989,125.132 110.989,125.009 L110.989,124.701 Q110.989,124.578 111.02,124.424 Q111.05,124.271 111.05,124.147 Q111.05,124.024 111.02,123.717 Q110.989,123.409 110.927,123.286 Q110.435,123.778 109.758,124.486 Q109.082,125.193 108.774,125.87 Q108.712,125.87 108.712,125.932 L108.712,126.055 z M107.605,158.478 Q107.79,158.601 108.374,158.693 Q108.959,158.785 109.082,158.785 Q109.205,158.785 109.543,158.693 Q109.881,158.601 109.943,158.478 L112.281,156.201 Q112.158,156.14 111.758,156.109 Q111.358,156.078 111.235,156.078 Q110.004,156.078 109.174,156.847 Q108.343,157.616 107.605,158.478 z M101.637,147.649 Q101.699,148.265 101.853,148.818 Q102.006,149.372 102.376,149.864 Q102.806,149.557 103.175,148.941 Q103.544,148.326 103.544,147.834 L103.483,147.526 Q103.298,147.157 102.96,146.511 Q102.622,145.865 102.56,145.865 L102.252,145.865 Q102.191,145.865 101.976,146.265 Q101.76,146.665 101.637,146.973 z M104.529,154.417 Q104.529,154.848 104.652,155.278 Q104.775,155.709 105.206,155.894 Q105.329,155.586 105.729,154.602 Q106.128,153.617 106.251,153.31 L106.251,153.125 Q106.251,153.063 106.282,153.033 Q106.313,153.002 106.313,152.94 Q106.313,152.51 106.159,152.141 Q106.005,151.771 105.575,151.587 Q105.083,151.895 104.775,152.848 Q104.467,153.802 104.529,154.417 z M103.298,151.341 Q103.36,151.648 103.421,152.233 Q103.483,152.817 103.975,153.002 Q104.098,152.756 104.498,151.895 Q104.898,151.033 105.021,150.726 L105.021,150.418 Q105.021,150.356 104.929,150.141 Q104.836,149.926 104.744,149.649 Q104.652,149.372 104.498,149.157 Q104.344,148.941 104.221,148.941 Q103.914,148.941 103.729,149.249 Q103.544,149.557 103.452,149.957 Q103.36,150.356 103.329,150.756 Q103.298,151.156 103.298,151.341 z M93.701,133.684 Q93.762,133.376 94.039,132.607 Q94.316,131.838 94.377,131.407 L94.377,131.284 Q94.377,130.792 93.916,129.869 Q93.455,128.946 93.209,128.454 L93.332,133.13 z M110.804,127.9 Q110.497,128.393 110.497,129.039 Q110.497,129.685 110.497,130.177 L110.866,130.177 L111.235,127.101 z M180.08,160.754 Q177.68,160.938 175.404,160.908 Q173.127,160.877 170.667,160.569 Q170.543,160.569 170.082,160.569 Q169.621,160.569 169.005,160.446 Q168.39,160.323 167.806,159.954 Q167.221,159.585 166.914,158.847 Q166.791,158.724 166.544,158.539 Q166.298,158.354 166.298,158.231 L165.499,156.509 Q165.437,156.078 165.345,155.894 Q165.252,155.709 165.16,155.586 Q165.068,155.463 164.945,155.248 Q164.822,155.032 164.76,154.602 Q164.33,153.063 163.745,152.079 Q163.161,151.095 162.576,150.295 Q161.992,149.495 161.438,148.634 Q160.884,147.772 160.515,146.419 Q160.515,146.234 160.177,145.681 Q159.838,145.127 159.439,144.512 Q159.039,143.896 158.7,143.312 Q158.362,142.728 158.3,142.543 Q158.239,142.543 158.177,142.174 Q158.116,141.805 158.054,141.682 Q157.87,141.189 157.254,140.636 Q156.639,140.082 156.455,139.651 Q155.962,139.159 155.501,138.359 Q155.04,137.56 154.732,136.883 Q154.424,136.268 154.055,135.745 Q153.686,135.222 152.394,134.176 Q152.271,134.114 152.363,134.576 Q152.456,135.037 152.394,135.037 Q152.394,135.345 152.425,135.345 Q152.456,135.345 152.456,135.314 Q152.456,135.283 152.425,135.283 Q152.394,135.283 152.333,135.591 Q151.779,139.651 151.625,143.743 Q151.471,147.834 151.164,151.956 Q151.164,152.079 151.133,152.479 Q151.102,152.879 151.041,153.34 Q150.979,153.802 150.948,154.232 Q150.918,154.663 150.918,154.725 Q150.918,154.848 150.887,155.155 Q150.856,155.463 150.856,155.832 Q150.856,156.201 150.887,156.509 Q150.918,156.816 150.918,156.878 Q150.61,157.309 150.425,157.616 Q150.241,157.924 149.933,158.293 Q149.81,158.354 149.595,158.693 Q149.379,159.031 149.103,159.431 Q148.826,159.831 148.58,160.2 Q148.334,160.569 148.272,160.631 Q148.026,160.938 147.811,160.877 Q147.595,160.815 147.103,160.938 Q146.98,160.938 146.549,160.908 Q146.119,160.877 144.95,160.877 Q143.781,160.877 141.658,160.938 Q139.536,161 136.029,161.185 L135.721,161.185 Q133.629,161.185 132.86,161.092 Q132.091,161 131.784,160.877 L131.784,158.724 L131.476,158.416 L131.476,158.17 Q131.538,158.047 131.63,157.678 Q131.722,157.309 131.784,157.186 Q131.784,156.509 131.753,155.063 Q131.722,153.617 131.722,151.771 Q131.722,149.926 131.722,147.926 Q131.722,145.927 131.722,144.081 Q131.722,142.235 131.753,140.79 Q131.784,139.344 131.784,138.667 Q131.784,138.359 131.814,137.437 Q131.845,136.514 131.907,135.283 Q131.968,134.053 132.03,132.607 Q132.091,131.161 132.153,129.777 Q132.214,128.393 132.245,127.254 Q132.276,126.116 132.337,125.439 Q132.337,125.316 132.368,124.947 Q132.399,124.578 132.46,124.147 Q132.522,123.717 132.553,123.378 Q132.584,123.04 132.584,122.917 Q132.584,122.671 132.614,121.994 Q132.645,121.317 132.676,120.579 Q132.707,119.841 132.707,119.195 Q132.707,118.549 132.707,118.303 L132.707,117.38 Q132.768,116.642 132.891,114.734 Q133.014,112.827 133.137,110.735 Q133.26,108.644 133.353,106.736 Q133.445,104.829 133.445,104.091 L133.445,103.722 Q133.445,103.537 133.414,102.83 Q133.383,102.122 133.322,101.292 Q133.26,100.461 133.23,99.723 Q133.199,98.984 133.199,98.8 L133.199,98.677 Q133.199,98.492 133.599,98.185 Q133.999,97.877 134.491,97.508 Q134.983,97.139 135.444,96.8 Q135.906,96.462 136.09,96.339 Q136.213,96.216 136.398,96.093 Q136.583,95.97 136.767,95.847 L137.259,95.478 Q137.321,95.416 137.475,95.17 Q137.628,94.924 137.813,94.647 Q137.998,94.37 138.182,94.124 Q138.367,93.878 138.428,93.878 L138.92,93.878 Q140.274,93.878 141.566,94.155 Q142.858,94.432 144.211,94.432 Q144.704,94.432 145.996,94.462 Q147.288,94.493 148.703,94.493 Q150.118,94.493 151.41,94.462 Q152.702,94.432 153.255,94.432 L153.748,95.17 Q153.748,95.17 153.84,95.785 Q153.932,96.4 154.024,97.231 Q154.117,98.062 154.209,98.954 Q154.301,99.846 154.363,100.399 L154.363,103.106 Q154.363,103.229 154.394,103.66 Q154.424,104.091 154.486,104.552 Q154.547,105.014 154.609,105.444 Q154.67,105.875 154.67,105.937 Q154.67,106.244 154.732,107.075 Q154.793,107.905 154.824,108.828 Q154.855,109.751 154.917,110.582 Q154.978,111.412 154.978,111.781 Q156.024,110.797 156.67,109.566 Q157.316,108.336 158.116,107.167 Q158.177,107.105 158.331,106.89 Q158.485,106.675 158.7,106.429 Q158.916,106.183 159.069,105.967 Q159.223,105.752 159.285,105.69 Q160.761,103.414 162.207,101.168 Q163.653,98.923 165.068,96.708 Q165.191,96.523 165.745,96.339 Q166.298,96.154 167.006,95.97 Q167.713,95.785 168.39,95.57 Q169.067,95.354 169.436,95.17 Q170.051,94.678 170.513,94.432 Q170.974,94.186 171.712,94.186 Q172.758,94.186 173.897,94.462 Q175.035,94.739 176.081,94.862 L183.34,94.862 Q183.402,94.862 183.802,94.801 Q184.202,94.739 184.632,94.678 Q185.063,94.616 185.432,94.524 Q185.801,94.432 185.924,94.432 L186.109,94.432 Q186.601,94.432 186.724,94.862 Q186.847,95.293 186.847,95.601 L186.847,96.031 Q186.786,96.154 186.54,96.523 Q186.293,96.893 186.232,97.016 Q182.356,103.845 178.388,110.551 Q174.419,117.257 171.159,124.455 Q171.097,124.578 171.005,124.947 Q170.913,125.316 170.851,125.439 L170.851,126.055 Q171.097,126.608 171.805,127.624 Q172.512,128.639 173.312,129.777 Q174.112,130.915 174.819,131.93 Q175.527,132.945 175.773,133.376 Q177.188,135.529 179.249,138.452 Q181.31,141.374 183.279,144.635 Q183.34,144.696 183.556,145.004 Q183.771,145.312 183.894,145.435 Q183.894,145.496 184.048,145.742 Q184.202,145.988 184.355,146.234 Q184.509,146.48 184.663,146.696 Q184.817,146.911 184.817,146.973 Q185.924,148.818 187.186,150.541 Q188.447,152.264 189.677,154.417 Q189.985,154.786 189.923,155.063 Q189.862,155.34 189.647,155.524 Q189.431,155.709 189.154,155.924 Q188.877,156.14 188.816,156.386 L183.894,160.569 Q184.325,160.446 183.863,160.477 Q183.402,160.508 182.633,160.6 Q181.864,160.692 181.064,160.785 Q180.264,160.877 180.08,160.754 z M133.752,111.351 Q133.999,111.104 134.491,110.735 Q134.983,110.366 135.444,109.997 Q135.906,109.628 136.336,109.259 Q136.767,108.89 136.952,108.705 Q137.628,107.782 137.998,107.29 Q138.367,106.798 138.367,106.183 Q138.428,105.752 138.49,104.614 Q138.551,103.476 138.551,103.045 Q137.936,103.045 137.382,103.599 Q136.829,104.152 136.306,104.829 Q135.783,105.506 135.229,106.121 Q134.675,106.736 134.122,106.859 Q134.06,107.105 133.999,107.628 Q133.937,108.151 133.906,108.736 Q133.876,109.32 133.814,109.843 Q133.752,110.366 133.752,110.551 z M163.53,149.311 Q163.53,149.434 163.714,149.618 Q163.776,149.741 163.899,149.926 Q163.899,149.987 163.96,150.233 Q164.022,150.479 164.114,150.756 Q164.207,151.033 164.268,151.249 Q164.33,151.464 164.33,151.525 Q164.453,151.771 164.822,152.294 Q165.191,152.817 165.376,153.002 Q165.499,152.94 165.714,152.756 Q165.929,152.571 165.991,152.448 Q166.298,151.956 166.452,151.464 Q166.606,150.972 166.852,150.541 Q167.283,149.741 166.668,148.726 Q166.052,147.711 165.437,146.727 L165.129,146.665 Q164.576,146.973 164.606,147.157 Q164.637,147.342 164.33,147.834 Q164.145,148.08 163.868,148.634 Q163.591,149.188 163.53,149.311 z M137.505,122.917 Q137.444,122.979 137.229,123.071 Q137.013,123.163 136.952,123.225 Q136.829,123.348 136.49,123.594 Q136.152,123.84 135.783,124.117 Q135.414,124.394 135.075,124.67 Q134.737,124.947 134.614,125.009 Q134.306,125.378 134.091,125.655 Q133.876,125.932 133.752,126.301 L133.752,126.424 L133.752,126.608 Q133.445,126.916 133.199,126.885 Q132.953,126.854 132.891,127.593 L132.891,130.607 Q132.953,130.546 133.199,130.331 Q133.445,130.115 133.445,129.992 Q133.691,129.808 134.245,129.285 Q134.798,128.762 135.383,128.177 Q135.967,127.593 136.521,127.039 Q137.075,126.485 137.259,126.301 Q137.628,125.993 137.598,125.316 Q137.567,124.64 137.567,124.271 Q137.567,124.147 137.536,123.594 Q137.505,123.04 137.505,122.917 z M138.121,108.582 Q137.69,108.582 137.167,109.136 Q136.644,109.689 136.029,110.366 Q135.414,111.043 134.829,111.658 Q134.245,112.273 133.752,112.458 L133.752,113.073 Q133.752,113.258 133.814,113.719 Q133.876,114.181 133.906,114.734 Q133.937,115.288 133.999,115.78 Q134.06,116.272 134.122,116.457 Q134.306,116.149 134.952,115.473 Q135.598,114.796 135.844,114.611 Q136.09,114.304 136.49,113.842 Q136.89,113.381 137.259,112.889 Q137.69,112.335 138.121,111.781 z M136.952,131.899 Q135.967,132.884 135.014,133.991 Q134.06,135.099 133.199,136.268 Q133.076,136.391 132.83,136.729 Q132.584,137.067 132.584,137.129 Q132.584,137.19 132.553,137.713 Q132.522,138.236 132.522,138.544 Q132.522,138.667 132.553,139.19 Q132.584,139.713 132.584,139.897 Q132.768,139.713 133.168,139.313 Q133.568,138.913 134.06,138.482 Q134.552,138.052 134.952,137.652 Q135.352,137.252 135.537,137.129 Q135.598,137.006 136.121,136.667 Q136.644,136.329 136.706,136.268 Q136.706,136.145 136.829,135.314 Q136.952,134.483 136.952,133.991 Q136.952,133.93 136.982,133.53 Q137.013,133.13 137.013,132.945 Q137.013,132.822 136.982,132.422 Q136.952,132.022 136.952,131.899 z M137.505,118.303 Q136.336,118.979 135.537,119.595 Q134.737,120.21 134.245,121.041 Q133.752,121.871 133.506,122.917 Q133.26,123.963 133.199,125.439 Q133.445,125.255 133.999,124.763 Q134.552,124.271 135.198,123.717 Q135.844,123.163 136.429,122.671 Q137.013,122.179 137.259,121.994 L137.382,121.871 Q137.444,121.81 137.505,121.687 z M132.891,131.899 Q132.768,132.699 132.645,133.561 Q132.522,134.422 132.522,135.222 L132.891,135.222 Q132.953,135.222 133.537,134.637 Q134.122,134.053 134.429,133.684 Q134.491,133.622 134.645,133.376 Q134.798,133.13 134.983,132.792 Q135.168,132.453 135.321,132.207 Q135.475,131.961 135.537,131.899 Q135.783,131.53 136.521,131.223 Q137.259,130.915 137.259,130.607 L137.259,127.593 Q136.398,128.27 135.414,129.192 Q134.429,130.115 133.752,130.977 Q133.629,131.1 133.476,131.592 Q133.322,132.084 132.891,131.899 z M136.398,142.358 Q136.398,142.235 136.398,142.051 Q136.398,141.866 136.46,141.559 Q136.09,141.866 135.629,142.266 Q135.168,142.666 134.706,143.066 Q134.245,143.466 133.906,143.804 Q133.568,144.143 133.445,144.204 Q133.445,144.266 133.322,144.389 L133.199,144.512 Q133.076,144.635 133.014,144.789 Q132.953,144.942 132.83,145.065 L132.584,145.435 L132.584,148.511 L132.891,148.511 Q133.014,148.449 133.291,148.172 Q133.568,147.896 133.906,147.619 Q134.245,147.342 134.522,147.065 Q134.798,146.788 134.921,146.665 Q135.044,146.604 135.567,146.265 Q136.09,145.927 136.09,145.804 Q136.398,145.127 136.367,144.081 Q136.336,143.035 136.398,142.358 z M138.121,99.046 Q137.567,99.046 137.044,99.354 Q136.521,99.661 136.09,100.03 Q135.783,100.338 135.229,100.892 Q134.675,101.445 134.614,101.568 Q134.429,102.061 134.398,102.953 Q134.368,103.845 134.368,104.398 Q134.368,104.521 134.398,104.983 Q134.429,105.444 134.429,105.69 Q134.491,105.506 134.86,105.137 Q135.229,104.768 135.629,104.368 Q136.029,103.968 136.429,103.599 Q136.829,103.229 136.952,103.106 Q137.075,102.983 137.536,102.676 Q137.998,102.368 138.121,102.245 z M138.182,114.242 Q138.182,114.119 138.151,113.688 Q138.121,113.258 138.121,113.135 Q137.998,113.258 137.536,113.688 Q137.075,114.119 136.952,114.242 Q136.583,114.673 136.06,115.288 Q135.537,115.903 135.014,116.488 Q134.491,117.072 134.122,117.503 Q133.752,117.934 133.752,117.934 L133.752,120.21 Q133.937,120.025 134.398,119.656 Q134.86,119.287 135.383,118.887 Q135.906,118.487 136.336,118.118 Q136.767,117.749 136.952,117.626 Q137.075,117.564 137.382,117.472 Q137.69,117.38 137.813,117.38 Q138.121,116.396 138.151,115.78 Q138.182,115.165 138.182,114.242 z M132.584,143.896 Q132.83,143.712 133.322,143.312 Q133.814,142.912 134.368,142.451 Q134.921,141.989 135.475,141.62 Q136.029,141.251 136.46,141.128 Q136.583,140.082 136.613,138.821 Q136.644,137.56 136.706,137.129 L136.398,137.129 L133.199,140.574 Q132.768,140.943 132.676,141.682 Q132.584,142.42 132.584,142.974 z M170.667,159.339 Q170.667,159.339 170.851,159.523 L170.974,159.646 L173.62,159.585 Q173.743,159.523 173.866,159.4 L174.235,159.031 Q174.419,158.724 174.758,158.17 Q175.096,157.616 175.404,157.124 Q175.773,156.509 176.142,155.955 L176.081,155.586 L175.896,155.647 Q175.588,155.647 174.727,155.74 Q173.866,155.832 173.558,155.955 Q173.374,156.078 173.004,156.417 Q172.635,156.755 172.235,157.155 Q171.835,157.555 171.466,157.924 Q171.097,158.293 170.913,158.416 Q170.913,158.478 170.82,158.724 Q170.728,158.97 170.667,159.093 z M161.93,146.542 Q161.869,147.096 162.115,147.742 Q162.361,148.388 162.668,148.695 L163.407,147.772 Q163.468,147.649 163.745,147.157 Q164.022,146.665 164.084,146.604 Q164.391,146.234 164.299,146.019 Q164.207,145.804 164.268,145.558 L164.268,145.373 Q164.268,145.25 164.207,145.127 Q164.145,145.004 164.114,144.912 Q164.084,144.819 164.022,144.758 Q163.96,144.512 163.714,144.143 Q163.468,143.773 163.345,143.65 Q163.345,143.65 163.222,143.589 Q162.853,143.589 162.638,143.927 Q162.422,144.266 162.269,144.758 Q162.115,145.25 162.022,145.773 Q161.93,146.296 161.93,146.542 z M165.929,154.294 Q165.929,154.663 166.145,155.34 Q166.36,156.017 166.729,156.324 Q166.729,156.263 166.821,156.201 Q166.914,156.14 166.975,156.078 Q167.037,155.894 167.252,155.617 Q167.467,155.34 167.744,155.001 Q168.021,154.663 168.298,154.325 Q168.575,153.986 168.698,153.74 Q168.759,153.679 168.882,153.433 L169.005,153.187 Q169.005,153.063 168.882,152.848 Q168.759,152.633 168.636,152.51 L167.836,150.91 Q167.713,151.033 167.498,151.279 Q167.283,151.525 167.221,151.648 Q166.975,152.018 166.575,152.817 Q166.175,153.617 165.991,154.109 z M174.789,159.893 Q175.281,160.2 175.896,160.108 Q176.511,160.016 177.126,159.954 Q177.126,159.893 177.065,159.862 Q177.003,159.831 177.065,159.77 Q177.126,159.646 177.342,159.185 Q177.557,158.724 177.68,158.601 Q177.68,158.539 177.926,158.139 Q178.172,157.739 178.48,157.339 Q178.788,156.939 179.034,156.57 Q179.28,156.201 179.341,156.14 L179.403,156.017 Q179.403,155.955 179.341,155.894 Q179.218,155.771 178.634,155.678 Q178.049,155.586 177.926,155.586 Q177.557,155.832 177.003,156.447 Q176.45,157.062 175.927,157.739 Q175.404,158.416 175.065,159 Q174.727,159.585 174.789,159.77 z M177.988,159.523 Q177.926,159.523 177.896,159.677 Q177.865,159.831 177.742,159.954 L177.988,159.954 L180.018,159.954 Q180.879,159.154 181.495,158.17 Q182.11,157.186 182.602,156.078 Q182.294,155.894 182.11,155.863 Q181.925,155.832 181.618,155.832 Q181.126,155.771 180.849,155.863 Q180.572,155.955 180.264,156.355 Q179.957,156.755 179.434,157.524 Q178.911,158.293 177.988,159.523 z M164.76,99.415 Q164.945,99.415 165.56,99.23 Q166.175,99.046 166.914,98.861 Q167.652,98.677 168.329,98.492 Q169.005,98.308 169.313,98.185 Q169.559,97.815 169.744,97.569 Q170.051,97.016 170.328,96.523 Q170.605,96.031 170.605,95.354 Q170.482,95.416 170.42,95.416 Q170.359,95.416 170.359,95.447 Q170.359,95.478 170.297,95.478 L170.236,95.478 L169.867,95.724 Q169.744,95.847 169.621,95.939 Q169.498,96.031 169.436,96.031 Q169.313,96.093 168.944,96.216 Q168.575,96.339 168.113,96.523 Q167.652,96.708 167.283,96.831 Q166.914,96.954 166.791,97.016 Q166.668,97.016 166.452,97.139 Q166.237,97.262 166.175,97.262 L164.76,98.8 z M169.621,154.109 Q168.575,155.032 167.96,155.678 Q167.344,156.324 167.221,157.739 L168.882,159.339 Q168.882,159.339 169.251,159.031 Q169.621,158.724 170.051,158.293 Q170.482,157.862 170.913,157.462 Q171.343,157.062 171.528,156.878 Q171.651,156.816 171.497,156.755 Q171.343,156.693 171.128,156.663 Q170.913,156.632 170.728,156.57 Q170.543,156.509 170.543,156.386 Q170.543,156.263 170.267,155.74 Q169.99,155.217 169.867,155.094 Q169.867,154.971 169.744,154.602 Q169.621,154.232 169.621,154.109 z M132.584,156.078 Q132.645,156.078 132.737,156.047 Q132.83,156.017 132.891,156.017 Q133.014,155.955 133.23,155.801 Q133.445,155.647 133.445,155.586 Q133.629,155.463 133.937,155.125 Q134.245,154.786 134.552,154.417 Q134.86,154.048 135.137,153.679 Q135.414,153.31 135.537,153.187 Q135.844,152.756 135.844,152.202 Q135.844,151.648 135.844,151.218 L135.844,150.049 Q135.66,150.233 135.26,150.633 Q134.86,151.033 134.46,151.495 Q134.06,151.956 133.691,152.325 Q133.322,152.694 133.199,152.879 Q133.199,152.94 133.076,153.187 Q132.953,153.433 132.891,153.494 Q132.891,153.556 132.768,153.679 Q132.645,153.802 132.584,153.802 z M156.824,110.981 Q156.639,111.166 156.639,111.228 Q156.332,111.658 155.901,112.335 Q155.47,113.012 155.47,113.688 Q155.532,113.688 155.624,113.658 Q155.716,113.627 155.778,113.627 Q156.455,113.504 157.531,113.289 Q158.608,113.073 158.731,113.073 Q158.916,113.012 159.223,112.735 Q159.531,112.458 159.808,112.15 Q160.085,111.843 160.269,111.597 Q160.454,111.351 160.454,111.228 L160.454,110.797 Q160.392,110.797 160.3,110.828 Q160.208,110.858 160.146,110.858 Q160.085,110.858 159.777,110.92 Q159.469,110.981 159.131,111.043 Q158.793,111.104 158.485,111.166 Q158.177,111.228 158.116,111.228 L157.808,111.228 Q157.747,111.166 157.408,111.012 Q157.07,110.858 156.947,110.858 z M159.592,106.552 Q159.1,107.044 158.793,107.598 Q159.469,107.598 160.423,107.567 Q161.376,107.536 161.623,107.475 Q162.853,107.229 163.345,106.829 Q163.837,106.429 164.514,105.321 L160.7,105.321 z M160.392,144.081 Q160.392,144.389 160.546,144.85 Q160.7,145.312 161.13,145.373 L161.253,145.312 Q161.684,144.512 161.899,143.866 Q162.115,143.22 162.853,142.42 L162.176,141.374 Q162.176,141.374 162.053,141.312 Q161.807,141.312 161.53,141.651 Q161.253,141.989 161.007,142.451 Q160.761,142.912 160.577,143.374 Q160.392,143.835 160.392,144.081 z M162.853,101.876 Q164.145,101.999 165.068,101.907 Q165.991,101.814 166.637,101.507 Q167.283,101.199 167.775,100.615 Q168.267,100.03 168.759,99.169 Q167.775,99.477 166.329,99.876 Q164.883,100.276 164.207,100.399 Q163.899,100.522 163.407,101.015 Q162.915,101.507 162.422,102.184 Q162.668,102.061 162.853,101.876 z M157.808,138.975 Q157.685,139.897 158.362,140.328 Q158.485,140.144 159.069,139.621 Q159.654,139.098 159.9,138.852 Q159.961,138.729 160.023,138.575 Q160.085,138.421 160.146,138.359 Q160.208,138.236 159.931,137.836 Q159.654,137.437 159.531,137.252 Q159.1,137.375 158.454,137.836 Q157.808,138.298 157.808,138.975 z M136.213,146.973 Q135.598,146.973 135.229,147.342 Q135.106,147.465 134.768,147.803 Q134.429,148.142 134.06,148.542 Q133.691,148.941 133.353,149.28 Q133.014,149.618 132.891,149.741 Q132.584,150.11 132.584,150.449 Q132.584,150.787 132.584,151.218 L132.584,151.956 Q132.707,151.833 133.045,151.495 Q133.383,151.156 133.752,150.818 Q134.122,150.479 134.46,150.172 Q134.798,149.864 134.921,149.741 Q135.044,149.741 135.383,149.495 Q135.721,149.249 135.844,149.188 Q135.906,149.126 135.998,149.034 Q136.09,148.941 136.09,148.88 Q136.152,148.634 136.183,147.896 Q136.213,147.157 136.213,146.973 z M138.121,95.478 Q137.259,96.462 136.49,97.077 Q135.721,97.692 134.614,98.554 Q134.306,98.861 134.337,99.015 Q134.368,99.169 134.368,99.784 Q134.368,99.907 134.398,100.246 Q134.429,100.584 134.429,100.707 Q134.614,100.584 135.044,100.184 Q135.475,99.784 135.967,99.323 Q136.46,98.861 136.89,98.461 Q137.321,98.062 137.505,97.877 Q138.059,97.385 138.151,97.262 Q138.244,97.139 138.244,96.339 Q138.244,96.216 138.213,95.877 Q138.182,95.539 138.121,95.478 z M162.053,102.676 Q161.684,103.229 161.438,103.752 Q161.192,104.275 161.192,104.46 Q162.976,104.46 164.176,104.214 Q165.376,103.968 166.483,102.553 z M155.163,135.468 Q155.163,135.529 155.409,135.868 Q155.655,136.206 155.932,136.667 Q156.209,137.129 156.485,137.56 Q156.762,137.99 156.885,138.175 Q156.885,138.175 157.07,138.482 Q157.747,137.683 158.177,137.129 Q158.608,136.575 158.362,136.083 Q158.239,135.898 158.023,135.529 Q157.808,135.16 157.562,134.76 Q157.316,134.36 157.07,134.053 Q156.824,133.745 156.639,133.745 L156.455,133.93 Q156.332,134.053 156.147,134.268 Q155.962,134.483 155.716,134.791 Q155.47,135.099 155.163,135.468 z M135.537,154.725 Q135.229,154.971 134.46,155.678 Q133.691,156.386 133.445,156.632 Q132.768,157.247 132.645,157.801 Q132.522,158.354 132.522,159.339 L132.891,159.339 L135.537,156.632 z M157.562,109.997 Q157.685,109.936 158.147,109.936 Q158.608,109.936 158.731,109.997 Q158.793,109.997 159.162,110.12 Q159.531,110.243 159.592,110.243 Q160.454,110.243 161.192,109.812 Q161.93,109.382 162.115,108.397 L160.454,108.397 Q160.392,108.397 160.085,108.428 Q159.777,108.459 159.377,108.49 Q158.977,108.521 158.639,108.551 Q158.3,108.582 158.177,108.582 Q157.747,109.32 157.562,109.997 z M158.854,141.436 Q158.916,141.805 159.131,142.143 Q159.346,142.481 159.531,142.974 Q159.531,142.974 159.777,142.758 Q160.023,142.543 160.3,142.328 Q160.577,142.112 160.823,141.897 Q161.069,141.682 161.069,141.682 Q161.192,141.559 161.284,141.312 Q161.376,141.066 161.5,140.943 Q161.623,140.697 161.5,140.359 Q161.376,140.021 161.192,139.744 Q161.007,139.467 160.823,139.251 Q160.638,139.036 160.7,138.975 Q160.146,139.651 159.838,139.99 Q159.531,140.328 159.346,140.543 Q159.162,140.759 159.069,140.943 Q158.977,141.128 158.854,141.436 z M184.632,155.832 Q184.14,155.832 183.648,156.293 Q183.156,156.755 182.694,157.339 Q182.233,157.924 181.895,158.539 Q181.556,159.154 181.433,159.523 Q181.495,159.523 181.648,159.554 Q181.802,159.585 181.864,159.585 Q182.233,159.585 182.94,159.4 Q183.648,159.216 183.771,158.908 Q183.771,158.847 183.71,158.57 Q183.648,158.293 183.71,158.231 Q183.71,158.17 183.863,157.893 Q184.017,157.616 184.14,157.309 Q184.263,157.001 184.417,156.693 Q184.571,156.386 184.571,156.324 Q184.632,156.263 184.632,156.078 Q184.632,155.894 184.632,155.832 z M142.981,157.493 Q142.858,157.493 142.704,157.832 Q142.55,158.17 142.427,158.57 Q142.304,158.97 142.181,159.4 Q142.058,159.831 142.058,160.016 L143.965,160.016 L145.073,157.493 z M152.886,132.822 Q152.825,133.068 153.163,133.561 Q153.501,134.053 153.994,134.268 Q154.486,134.483 154.978,134.207 Q155.47,133.93 155.778,132.699 L155.655,132.269 L153.378,129.746 z M139.597,159.708 L141.012,160.016 Q141.074,160.016 141.166,159.893 Q141.258,159.77 141.32,159.708 Q141.504,159.339 141.689,158.693 Q141.874,158.047 141.874,157.616 Q141.874,157.247 141.627,157.186 Q141.381,157.124 141.074,157.124 Q140.889,157.124 140.643,157.462 Q140.397,157.801 140.151,158.231 Q139.905,158.662 139.72,159.062 Q139.536,159.462 139.536,159.585 z M138.982,157.37 Q138.859,157.37 138.674,157.401 Q138.49,157.432 138.428,157.493 Q138.305,157.555 137.751,158.139 Q137.198,158.724 136.952,159.031 Q136.89,159.154 136.798,159.523 Q136.706,159.893 136.706,160.016 L138.428,160.016 L139.597,157.493 Q139.474,157.432 139.259,157.401 Q139.043,157.37 138.982,157.37 z M133.752,160.2 Q135.106,160.2 135.66,159.554 Q136.213,158.908 136.952,157.862 L135.537,157.862 L133.752,159.708 z M154.917,115.042 Q154.917,115.842 155.593,115.842 Q156.393,115.842 156.824,115.38 Q157.254,114.919 157.562,114.242 L157.254,114.242 Q157.131,114.242 156.762,114.304 Q156.393,114.365 155.962,114.458 Q155.532,114.55 155.224,114.704 Q154.917,114.857 154.917,115.042 z M148.764,157.124 Q147.841,157.124 147.503,158.016 Q147.165,158.908 146.857,159.708 L147.349,159.708 L149.441,157.186 Q149.318,157.124 149.072,157.124 Q148.826,157.124 148.764,157.124 z M145.75,157.493 Q145.75,158.17 145.411,158.785 Q145.073,159.4 145.073,160.016 L145.626,160.016 Q145.626,160.016 145.75,159.77 Q145.873,159.523 146.026,159.154 Q146.18,158.785 146.303,158.416 Q146.426,158.047 146.549,157.862 L146.549,157.801 Q146.549,157.739 146.58,157.739 Q146.611,157.739 146.611,157.678 L146.611,157.493 z M186.724,155.647 Q186.478,155.647 186.14,155.863 Q185.801,156.078 185.524,156.417 Q185.248,156.755 185.032,157.124 Q184.817,157.493 184.817,157.739 Q184.817,157.801 184.848,157.801 Q184.878,157.801 184.878,157.862 Q185.494,157.432 186.509,156.601 Q187.524,155.771 188.016,155.217 Q187.955,155.155 187.401,155.401 Q186.847,155.647 186.724,155.647 z M193.492,156.693 L194.045,152.387 Q194.353,152.141 194.599,151.895 Q194.845,151.71 195.091,151.464 Q195.337,151.218 195.522,151.095 Q196.26,150.603 196.968,150.633 Q197.675,150.664 198.66,151.033 L198.967,151.033 Q199.336,151.095 199.736,150.664 Q200.136,150.233 200.505,149.618 Q200.875,149.003 201.121,148.388 Q201.367,147.772 201.428,147.526 Q201.551,146.665 201.613,146.05 Q201.674,145.435 201.797,144.696 Q201.92,143.958 201.736,142.974 Q201.551,141.989 201.305,141.128 Q201.367,141.066 201.274,140.759 Q201.182,140.451 201.182,140.39 Q201.121,140.328 201.121,139.928 Q201.121,139.528 201.121,139.128 Q201.121,138.729 201.121,138.359 Q201.121,137.99 201.121,137.867 Q201.121,137.621 201.09,136.944 Q201.059,136.268 201.028,135.499 Q200.998,134.729 200.967,134.053 Q200.936,133.376 200.936,133.13 L200.628,130.238 Q200.813,129.5 200.782,128.946 Q200.751,128.393 200.69,127.808 Q200.628,127.224 200.628,126.547 Q200.628,125.87 200.813,124.886 Q200.998,123.84 201.49,123.286 Q201.982,122.732 202.628,122.425 Q203.274,122.117 203.981,121.84 Q204.689,121.563 205.366,121.071 Q203.028,119.226 201.89,117.349 Q200.751,115.473 200.628,114.611 Q200.505,112.827 200.567,110.981 Q200.628,109.136 199.767,107.413 Q199.644,107.229 199.398,106.859 Q199.152,106.49 198.875,106.152 Q198.598,105.813 198.414,105.567 Q198.229,105.321 198.168,105.321 L193.861,104.583 Q193.738,104.583 193.646,104.06 Q193.553,103.537 193.522,102.891 Q193.492,102.245 193.492,101.599 Q193.492,100.953 193.492,100.707 Q193.492,100.646 193.553,99.938 Q193.615,99.23 193.676,98.861 Q193.738,98.677 193.861,97.969 Q193.984,97.262 193.984,97.077 Q194.168,96.77 194.23,96.431 Q194.292,96.093 194.538,95.724 Q194.599,95.539 194.938,95.139 Q195.276,94.739 195.645,94.278 Q196.014,93.816 196.322,93.417 Q196.629,93.017 196.752,92.832 Q196.999,92.586 197.275,92.494 Q197.552,92.401 197.798,92.278 Q197.921,92.278 198.321,92.34 Q198.721,92.401 199.152,92.494 Q199.583,92.586 199.982,92.647 Q200.382,92.709 200.567,92.709 Q202.105,93.017 203.151,93.293 Q204.197,93.57 205.058,93.97 Q205.919,94.37 206.781,95.047 Q207.642,95.724 208.811,96.708 Q209.918,97.692 211.026,99.138 Q212.133,100.584 212.502,102.061 Q212.749,103.291 212.872,104.398 Q212.995,105.506 213.056,106.859 Q213.056,107.044 213.056,107.413 Q213.056,107.782 213.025,108.244 Q212.995,108.705 212.995,109.074 Q212.995,109.443 212.995,109.628 Q212.995,109.751 212.933,110.12 Q212.872,110.489 212.81,110.889 Q212.749,111.289 212.687,111.689 Q212.626,112.089 212.626,112.212 Q212.564,113.258 212.626,114.55 Q212.687,115.842 212.933,117.134 Q213.179,118.426 213.702,119.625 Q214.225,120.825 215.086,121.625 L216.686,122.486 Q217.301,122.732 217.517,123.009 Q217.732,123.286 217.64,123.532 Q217.547,123.778 217.271,124.024 Q216.994,124.271 216.686,124.517 Q215.948,125.009 215.425,125.562 Q214.902,126.116 214.533,126.978 Q214.164,127.839 214.01,129.1 Q213.856,130.361 213.856,132.207 Q213.856,132.392 213.825,132.73 Q213.794,133.068 213.794,133.13 Q213.794,133.376 213.733,134.422 Q213.671,135.468 213.61,136.698 Q213.548,137.929 213.487,138.975 Q213.425,140.021 213.425,140.267 Q213.425,140.328 213.333,140.913 Q213.241,141.497 213.148,142.235 Q213.056,142.974 212.933,143.773 Q212.81,144.573 212.749,145.004 Q212.626,145.927 212.533,146.665 Q212.441,147.403 212.318,148.08 Q212.195,148.757 212.01,149.464 Q211.826,150.172 211.518,151.033 Q211.518,151.033 211.426,151.31 Q211.334,151.587 211.241,151.895 Q211.149,152.202 211.087,152.448 Q211.026,152.694 211.026,152.756 Q210.78,153.187 210.564,153.74 Q210.349,154.294 210.134,154.878 Q209.918,155.463 209.703,155.986 Q209.488,156.509 209.242,156.878 Q207.95,158.293 206.689,159.277 Q205.427,160.262 203.889,161.308 Q202.105,162.415 199.921,162.446 Q197.737,162.477 195.768,162.169 Q194.599,161.984 194.107,161.554 Q193.615,161.123 193.676,159.954 Q193.676,159.77 193.676,159.37 Q193.676,158.97 193.676,158.508 Q193.676,158.047 193.707,157.647 Q193.738,157.247 193.738,157.062 z M201.49,108.767 Q201.551,108.89 201.674,109.536 Q201.797,110.182 201.859,110.366 Q201.982,110.305 202.29,110.12 Q202.597,109.936 202.905,109.72 Q203.212,109.505 203.52,109.351 Q203.828,109.197 203.951,109.136 Q204.012,109.013 204.412,108.859 Q204.812,108.705 204.935,108.582 L204.935,108.521 Q204.935,108.521 204.997,108.397 L204.997,108.274 Q204.997,108.151 204.935,107.875 Q204.874,107.598 204.812,107.29 Q204.751,106.982 204.689,106.736 Q204.627,106.49 204.627,106.429 Q204.627,106.367 204.504,106.244 Q204.381,106.121 204.381,106.06 L204.32,106.06 Q204.258,106.06 204.197,105.998 L204.074,105.998 Q203.151,106.49 202.597,106.982 Q202.043,107.475 201.551,108.397 L201.49,108.521 z M197.552,98.615 Q197.122,98.8 196.722,99.323 Q196.322,99.846 195.953,100.461 Q195.584,101.076 195.245,101.691 Q194.907,102.307 194.599,102.676 Q194.845,103.476 195.46,103.537 Q195.522,103.537 195.676,103.599 Q195.83,103.66 195.953,103.66 Q196.014,103.599 196.199,103.322 Q196.383,103.045 196.568,102.737 Q196.752,102.43 196.937,102.122 Q197.122,101.814 197.122,101.691 Q197.183,101.63 197.275,101.045 Q197.368,100.461 197.429,100.153 Q197.429,99.969 197.491,99.354 Q197.552,98.738 197.552,98.615 z M204.443,109.505 Q204.32,109.566 204.043,109.782 Q203.766,109.997 203.428,110.243 Q203.089,110.489 202.782,110.705 Q202.474,110.92 202.413,111.043 Q202.105,111.351 201.982,111.874 Q201.859,112.396 201.797,112.827 L201.797,113.442 Q201.859,113.381 202.167,113.135 Q202.474,112.889 202.813,112.673 Q203.151,112.458 203.459,112.243 Q203.766,112.027 203.889,111.966 Q203.951,111.843 204.535,111.72 Q205.12,111.597 205.243,111.474 L205.243,111.289 Q205.243,111.166 205.273,111.135 Q205.304,111.104 205.304,110.981 Q205.366,110.612 205.335,110.12 Q205.304,109.628 204.751,109.505 z M201.736,124.763 Q201.736,124.824 201.705,124.947 Q201.674,125.07 201.674,125.132 Q201.736,125.255 201.767,125.747 Q201.797,126.239 201.859,126.362 Q202.043,126.239 202.751,125.932 Q203.459,125.624 203.52,125.439 Q203.52,125.378 203.797,124.886 Q204.074,124.394 204.443,123.84 Q204.812,123.286 205.212,122.825 Q205.612,122.363 205.919,122.24 Q205.858,122.179 205.796,122.179 Q205.612,122.179 204.966,122.486 Q204.32,122.794 203.612,123.225 Q202.905,123.655 202.32,124.086 Q201.736,124.517 201.736,124.763 z M197.306,154.355 Q197.368,153.986 197.429,153.494 Q197.491,153.002 197.491,152.51 Q197.306,152.694 196.937,153.094 Q196.568,153.494 196.137,153.956 Q195.707,154.417 195.337,154.848 Q194.968,155.278 194.907,155.401 Q194.845,155.586 194.599,156.355 Q194.353,157.124 194.353,157.37 Q194.968,157.493 195.091,157.247 Q195.214,157.001 195.707,156.509 Q195.707,156.447 195.922,156.232 Q196.137,156.017 196.414,155.801 Q196.691,155.586 196.906,155.401 Q197.122,155.217 197.122,155.155 Q197.183,155.094 197.245,154.786 Q197.306,154.479 197.306,154.355 z M194.722,100.092 Q194.661,100.399 194.63,100.769 Q194.599,101.138 194.538,101.568 Q194.784,101.015 195.245,100.399 Q195.707,99.784 196.168,99.2 Q196.629,98.615 196.999,98.123 Q197.368,97.631 197.429,97.323 Q197.491,97.2 197.522,96.831 Q197.552,96.462 197.245,96.339 Q196.322,96.646 195.584,97.877 Q194.845,99.107 194.722,100.092 z M199.213,104.398 Q199.152,104.706 199.521,104.952 Q199.89,105.198 200.075,105.321 Q200.628,104.829 201.336,104.306 Q202.043,103.783 202.843,103.476 Q202.72,103.414 202.659,103.322 Q202.597,103.229 202.536,103.168 Q202.413,103.045 202.105,102.768 Q201.797,102.491 201.736,102.43 L201.551,102.43 Q201.182,102.368 200.813,102.553 Q200.444,102.737 200.105,103.045 Q199.767,103.353 199.521,103.722 Q199.275,104.091 199.213,104.398 z M196.937,156.693 Q195.891,157.186 195.184,158.262 Q194.476,159.339 194.292,160.446 Q194.722,160.508 195.214,160.2 Q195.707,159.893 196.137,159.4 Q196.568,158.908 196.845,158.385 Q197.122,157.862 197.183,157.493 Q197.245,157.309 197.245,157.062 Q197.245,156.816 196.937,156.693 z M200.875,106.183 Q200.813,106.49 200.813,106.767 Q200.813,107.044 201.121,107.352 Q201.182,107.352 201.274,107.259 Q201.367,107.167 201.428,107.105 Q201.551,106.982 201.89,106.675 Q202.228,106.367 202.628,106.029 Q203.028,105.69 203.397,105.383 Q203.766,105.075 203.889,104.952 L203.151,103.968 Q202.536,104.275 201.767,104.829 Q200.998,105.383 200.875,106.183 z M199.09,159.523 Q198.967,159.339 198.598,159.093 Q198.229,158.847 198.106,158.416 Q197.983,158.785 197.583,159.185 Q197.183,159.585 196.752,159.985 Q196.322,160.385 195.953,160.692 Q195.584,161 195.584,161.185 Q196.629,161.308 197.614,161.031 Q198.598,160.754 199.09,159.523 z M202.413,140.144 Q202.351,140.513 202.474,141.036 Q202.597,141.559 202.72,141.928 Q202.966,141.866 203.489,141.466 Q204.012,141.066 204.197,140.882 L204.197,140.636 Q204.381,139.651 204.258,138.113 Q203.766,138.605 203.12,139.282 Q202.474,139.959 202.413,140.021 z M204.012,147.834 Q203.397,147.772 202.936,148.08 Q202.474,148.388 202.105,148.88 Q201.736,149.372 201.521,149.957 Q201.305,150.541 201.244,150.972 L201.244,151.095 Q202.29,150.787 203.059,149.833 Q203.828,148.88 204.135,147.896 z M202.167,114.857 Q202.043,115.288 202.351,115.411 Q202.597,115.227 203.397,114.642 Q204.197,114.058 204.504,113.873 Q204.627,113.873 204.874,113.812 Q205.12,113.75 205.181,113.688 L205.427,112.212 L205.181,112.15 Q205.12,112.15 204.812,112.335 Q204.504,112.52 204.105,112.796 Q203.705,113.073 203.274,113.35 Q202.843,113.627 202.597,113.812 Q202.351,114.119 202.29,114.334 Q202.228,114.55 202.167,114.857 z M201.736,131.346 Q201.736,131.592 201.767,132.022 Q201.797,132.453 201.859,132.638 Q201.92,132.638 201.951,132.699 Q201.982,132.761 202.043,132.761 L202.228,132.761 Q202.413,132.576 202.936,132.33 Q203.459,132.084 203.582,131.961 L203.582,131.838 Q203.582,131.715 203.643,131.653 Q203.705,131.346 203.612,130.73 Q203.52,130.115 203.089,129.992 L202.905,129.992 Q202.659,130.115 202.29,130.392 Q201.92,130.669 201.797,130.792 L201.797,130.854 Q201.797,130.915 201.767,130.946 Q201.736,130.977 201.736,131.038 z M203.274,116.272 Q203.212,116.765 203.674,117.288 Q204.135,117.811 204.258,118.303 Q204.504,118.487 204.689,118.672 Q205.058,119.041 205.12,119.041 L204.812,118.426 Q204.812,118.18 204.781,117.626 Q204.751,117.072 204.751,116.457 Q204.751,115.842 204.751,115.319 Q204.751,114.796 204.751,114.611 Q204.258,114.919 203.828,115.288 Q203.397,115.657 203.274,116.272 z M203.951,135.898 Q202.536,136.329 202.228,137.16 Q201.92,137.99 202.043,139.036 L204.197,137.498 Q204.135,137.067 204.074,136.667 Q204.012,136.268 203.951,135.898 z M202.72,145.988 Q202.72,146.234 202.689,146.573 Q202.659,146.911 203.151,147.034 L203.335,147.034 Q203.52,146.973 203.889,146.819 Q204.258,146.665 204.32,146.604 Q204.32,146.48 204.381,146.357 Q204.381,146.234 204.412,146.173 Q204.443,146.111 204.443,145.988 Q204.504,145.496 204.535,144.942 Q204.566,144.389 204.504,143.896 Q203.951,144.389 203.397,145.004 Q202.843,145.619 202.72,145.988 z M202.351,159.462 Q201.059,159.277 200.29,159.862 Q199.521,160.446 198.783,161.369 Q198.783,161.431 198.844,161.431 L199.029,161.431 L199.213,161.431 Q199.89,161.554 200.321,161.431 Q200.751,161.308 201.09,161 Q201.428,160.692 201.736,160.292 Q202.043,159.893 202.474,159.523 z M203.397,133.191 Q202.966,133.13 202.689,133.407 Q202.413,133.684 202.259,134.114 Q202.105,134.545 202.043,134.976 Q201.982,135.406 201.982,135.591 Q202.474,135.652 203.12,135.375 Q203.766,135.099 203.889,134.545 Q203.951,134.176 203.92,133.745 Q203.889,133.314 203.397,133.191 z M203.397,126.547 Q203.151,126.547 203.151,126.608 Q202.905,126.731 202.474,127.008 Q202.043,127.285 201.982,127.347 Q201.92,127.408 201.89,127.808 Q201.859,128.208 201.797,128.393 Q201.797,128.516 201.736,128.946 Q201.674,129.377 201.674,129.562 L203.028,129.069 z M199.521,102.061 Q199.029,102.184 198.814,102.122 Q198.598,102.061 198.414,102.091 Q198.229,102.122 197.952,102.46 Q197.675,102.799 197.122,103.722 Q197.921,103.845 198.875,103.445 Q199.829,103.045 199.952,102.061 z M195.091,154.171 L197.368,151.771 Q197.306,151.341 196.999,151.587 Q196.691,151.833 196.383,151.587 Q195.645,151.895 195.245,152.602 Q194.845,153.31 194.722,154.109 z M205.489,158.293 Q205.427,158.293 205.427,158.231 Q205.243,158.293 204.874,158.57 Q204.504,158.847 204.105,159.185 Q203.705,159.523 203.366,159.862 Q203.028,160.2 203.028,160.385 L203.028,160.508 Q203.582,160.446 204.32,159.985 Q205.058,159.523 205.366,159.339 Q205.427,159.216 205.643,158.785 Q205.858,158.354 205.735,158.293 L205.612,158.293 z M202.72,144.143 Q202.659,144.45 202.843,144.389 Q203.028,144.327 203.305,144.112 Q203.582,143.896 203.889,143.65 Q204.197,143.404 204.504,143.343 Q204.443,142.974 204.412,142.604 Q204.381,142.235 204.32,141.928 Q204.135,141.989 203.643,142.389 Q203.151,142.789 202.966,142.912 Q202.966,143.22 202.905,143.466 Q202.782,144.081 202.72,144.143 z M197.368,93.816 Q196.691,94.555 195.953,95.447 Q195.214,96.339 195.091,97.139 Q195.091,97.2 195.061,97.323 Q195.03,97.446 195.03,97.508 Q195.153,97.262 195.676,96.677 Q196.199,96.093 196.322,95.908 L197.429,94.801 L197.429,94.739 Q197.429,94.678 197.46,94.678 Q197.491,94.678 197.491,94.616 L197.491,94.493 Q197.491,94.37 197.398,94.155 Q197.306,93.939 197.368,93.816 z M209.057,155.401 Q208.996,155.463 208.657,155.771 Q208.319,156.078 207.95,156.417 Q207.581,156.755 207.242,157.062 Q206.904,157.37 206.842,157.37 Q206.473,157.555 206.473,157.985 L206.473,158.724 z" fill-opacity="0" stroke="#DD032B" stroke-width="1"/>
    </g>
    <path d="M-289.5,165.833 L-288.167,165.833 L-288.167,165.833 L-289.5,165.833 z" fill="#F5D301"/>
    <path d="M1242.5,895.167 L1242.5,895.167 L1242.5,896.5 L1242.5,896.5 z" fill="#F5D301"/>
  </g>
</svg>
